<?xml version="1.0" encoding="utf-8"?>
<!-- Generator: Adobe Illustrator 15.0.2, SVG Export Plug-In . SVG Version: 6.00 Build 0)  -->
<!DOCTYPE svg PUBLIC "-//W3C//DTD SVG 1.1//EN" "http://www.w3.org/Graphics/SVG/1.1/DTD/svg11.dtd">
<svg version="1.1" id="Layer_1" xmlns="http://www.w3.org/2000/svg" xmlns:xlink="http://www.w3.org/1999/xlink" x="0px" y="0px"
	 width="512px" height="359.292px" viewBox="0 0 512 359.292" enable-background="new 0 0 512 359.292" xml:space="preserve">
<g>
	<path fill="#231F20" d="M510.213,337.506l0.143-0.088L323.766,14.25l-0.077,0.044C319.578,5.865,311.006,0,300.987,0
		c-10.271,0-19.076,6.149-23.045,14.952L153.769,230.016l-30.402-52.655l-0.041,0.025c-2.165-4.445-6.685-7.545-11.971-7.545
		c-5.409,0-10.052,3.245-12.146,7.87L10.578,331.23h-0.397v0.685l-8.583,14.864C0.605,348.078,0,349.685,0,351.449
		c0,4.286,3.472,7.761,7.755,7.761c0.853,0,1.655-0.17,2.425-0.428v0.51h95.411H217.84h280.622v-0.279
		C506.025,358.41,512,352.14,512,344.412C512,341.901,511.32,339.578,510.213,337.506z"/>
</g>
</svg>
